<svg xmlns="http://www.w3.org/2000/svg" viewBox="0 0 200 200">
  <defs>
    <linearGradient id="logoGrad" x1="0%" y1="0%" x2="100%" y2="100%">
      <stop offset="0%" stop-color="#6fa87a"/>
      <stop offset="50%" stop-color="#528c5e"/>
      <stop offset="100%" stop-color="#3a5c3e"/>
    </linearGradient>
  </defs>
  <g transform="translate(100,100)" fill="none" stroke="url(#logoGrad)" stroke-linecap="round" stroke-linejoin="round">
    <polygon points="0,-80 69.3,-40 69.3,40 0,80 -69.3,40 -69.3,-40" stroke-width="4" opacity="0.7"/>
    <path d="M 0,-80 C -10,-35 -50,-18 -69.3,-40" stroke-width="5.5"/>
    <path d="M 0,-80 C 10,-35 50,-18 69.3,-40" stroke-width="5.5"/>
    <path d="M -69.3,-40 C -42,-12 -42,12 -69.3,40" stroke-width="5.5"/>
    <path d="M -69.3,40 C -32,22 -12,50 0,80" stroke-width="5.5"/>
    <path d="M 69.3,-40 C 42,-12 42,12 69.3,40" stroke-width="5.5"/>
    <path d="M 69.3,40 C 32,22 12,50 0,80" stroke-width="5.5"/>
    <circle cx="0" cy="-8" r="6" fill="url(#logoGrad)" stroke="none" opacity="0.4"/>
  </g>
</svg>
